<svg width="376" height="323" viewBox="0 0 376 323" fill="none" xmlns="http://www.w3.org/2000/svg">
<path d="M202.71 310.476C202.71 314.136 186.03 317.111 165.453 317.111C144.875 317.111 128.196 314.144 128.196 310.476C128.196 306.815 144.875 303.841 165.453 303.841C186.03 303.841 202.71 306.815 202.71 310.476Z" fill="#DDDDDD"/>
<path d="M248.173 310.476C248.173 314.136 231.493 317.111 210.915 317.111C190.338 317.111 173.658 314.144 173.658 310.476C173.658 306.815 190.338 303.841 210.915 303.841C231.493 303.848 248.173 306.815 248.173 310.476Z" fill="#DDDDDD"/>
<g filter="url(#filter0_d)">
<path d="M173.502 302.748C173.502 302.748 169.721 309.44 170.104 311.077C170.493 312.714 170.01 314.358 170.782 314.323C174.924 314.144 179.06 313.837 183.192 313.35C183.464 311.592 183.73 309.711 183.203 308.045C182.336 305.314 175.79 303.942 173.502 302.748Z" fill="#3C3C3B"/>
<path d="M172.453 309.947C171.67 308.939 172.453 305.514 173.797 302.891C173.691 302.84 173.591 302.79 173.497 302.748C173.497 302.748 169.716 309.44 170.099 311.077C170.487 312.714 170.004 314.358 170.776 314.323C174.918 314.144 179.055 313.837 183.186 313.35C183.314 312.514 183.441 311.656 183.48 310.805C179.693 312.006 175.834 312.128 172.453 309.947Z" fill="#3C3C3B"/>
<path d="M163.469 302.748L162.203 308.796C162.203 308.796 158.594 310.198 157.711 311.642C156.828 313.093 157.622 313.815 157.622 313.815L169.505 313.908L173.058 309.576L171.048 301.246L163.469 302.748Z" fill="#3C3C3B"/>
<path d="M173.053 309.583L171.043 301.253L170.076 301.446C170.015 306.408 168.227 311.306 165.212 313.887L169.499 313.922L173.053 309.583Z" fill="#3C3C3B"/>
<path d="M173.941 200.786L175.562 264.346C175.562 264.346 172.581 305.199 172.564 305.435C172.436 307.201 183.341 306.793 184.38 306.715C186.323 294.189 186.378 280.948 187.161 268.207L189.366 240.159L185.573 206.406L173.941 200.786Z" fill="#00234B"/>
<path d="M176.007 257.176C176.007 257.176 185.39 262.052 187.844 259.471L187.706 249.569L176.007 251.892V257.176Z" fill="#00234B"/>
<path d="M159.244 196.783L154.89 252.371L162.747 306.372L172.247 304.248L173.069 292.573L170.221 257.283L175.124 228.148L173.053 197.055L159.244 196.783Z" fill="#00234B"/>
<path d="M155.196 255.617C156.456 256.253 164.824 258.77 166.767 255.617C167.395 254.602 167.772 207.078 167.772 207.078L174.519 198.985L166.767 199.092H160.698L155.19 239.823V255.617H155.196Z" fill="#00234B"/>
<path d="M180.214 140.051L178.775 139.435V135.184H169.539V139.435L168.094 140.014L168.479 152.068H169.539V153.916H178.775V152.068H179.829L180.214 140.051Z" fill="#F6CCB8"/>
<path d="M167.278 143.354L170.782 154.6C170.782 154.6 181.265 144.069 181.27 144.069C180.676 144.67 181.32 151.426 181.326 152.37C181.37 158.597 181.409 164.824 181.454 171.052C181.493 177.1 181.365 183.199 181.576 189.24C181.67 192.021 182.592 195.003 180.743 197.005C178.416 199.514 173.025 199.336 170.188 199.278C167.622 199.228 160.177 199.057 159.41 195.689C159.133 194.474 160.021 191.628 160.204 190.399C161.132 184.236 162.059 178.073 162.986 171.917C164.419 162.386 165.851 152.87 167.278 143.354Z" fill="#0096D6"/>
<path d="M158.583 145.234C158.583 145.234 150.904 183.284 150.793 185.579C150.676 187.874 158.583 206.027 158.583 206.027L162.753 148.001L158.583 145.234Z" fill="#D7E3F2"/>
<path d="M169.166 140.344L158.577 145.234C158.577 145.234 154.835 205.691 155.534 208.701C156.234 211.711 152.242 250.741 152.242 250.741C152.242 250.741 163.874 255.231 166.09 251.635L164.663 169.407L169.166 140.344Z" fill="#F8F9FB"/>
<path d="M189.699 253.865C187.989 254.609 186.195 254.988 184.391 255.117C182.819 255.224 181.248 255.138 179.699 254.938C178.827 254.831 171.126 253.529 171.126 252.786C171.126 252.75 171.043 167.677 171.043 167.677C171.043 167.677 176.962 150.253 178.305 146.821C179.643 143.383 179.11 137.463 179.11 137.463L185.574 146.085L187.806 161.335L188.611 177.236C188.611 177.236 190.215 200.243 190.587 205.634C190.587 205.698 190.593 205.763 190.599 205.82C191.365 216.88 192.103 227.948 192.853 239.001C193.047 241.933 193.291 244.864 193.447 247.795C193.652 251.771 192.797 252.514 189.699 253.865Z" fill="#F8F9FB"/>
<path d="M189.699 253.865C187.989 254.608 186.195 254.987 184.391 255.116L184.146 254.887L191.526 243.105L189.36 200.965L190.582 205.619C190.582 205.684 190.587 205.748 190.593 205.805C191.359 216.866 192.098 227.933 192.847 238.987C193.042 241.918 193.286 244.849 193.441 247.781C193.652 251.77 192.797 252.514 189.699 253.865Z" fill="#F8F9FB"/>
<path d="M182.259 162.193C182.697 162.986 188.339 171.852 188.339 171.852L189.333 187.624L185.574 171.687L182.259 162.193Z" fill="#F8F9FB"/>
<path d="M185.573 196.511L182.159 200.787L188.239 202.889L190.143 199.292L185.573 196.511Z" fill="#FFB980"/>
<path d="M184.341 196.783L189.36 200.973C189.36 200.973 200.765 187.331 201.542 182.741C202.314 178.151 192.186 148.094 192.186 148.094L185.568 146.092L184.074 165.21L188.377 172.71L191.131 185.222L184.341 196.783Z" fill="white"/>
<path d="M183.515 123.657L183.796 120.005C183.796 115.23 179.231 111.36 174.459 111.36C169.684 111.36 165.123 115.23 165.123 120.005L165.403 123.654C165.136 123.718 164.895 123.841 164.694 124.013C164.32 124.331 164.085 124.802 164.085 125.331V127.129C164.085 128.08 164.851 128.851 165.804 128.857C165.804 133.366 171.222 137.641 174.46 137.641C177.697 137.641 183.116 133.367 183.116 128.857C184.065 128.851 184.832 128.08 184.832 127.13V125.332C184.832 124.519 184.27 123.843 183.515 123.657Z" fill="#F6CCB8"/>
<path opacity="0.8" d="M183.515 123.657L183.796 120.005C183.796 115.23 179.231 111.36 174.459 111.36C174.459 111.36 174.458 111.36 174.458 111.36V123.636C173.196 126.319 172.383 130.207 172.383 130.207H174.458V137.642C174.458 137.642 174.458 137.642 174.459 137.642C174.459 137.642 174.46 137.642 174.46 137.642C177.698 137.641 183.115 133.367 183.115 128.858C184.064 128.851 184.832 128.081 184.832 127.13V125.332C184.832 124.519 184.27 123.843 183.515 123.657Z" fill="#F6CCB8"/>
<path d="M185.167 111.613C185.13 111.316 184.861 111.105 184.564 111.14C182.474 111.382 182.35 110.931 178.706 108.786C175.397 106.838 172.012 107.615 169.756 109.292C160.794 111.36 164.102 122.146 165.173 125.054C165.232 125.215 165.469 125.176 165.477 125.005C165.568 123.047 166.052 117.915 168.628 116.106C174.003 119.771 179.495 119.971 182.622 117.791C183.482 119.796 183.529 122.998 183.485 124.673C183.481 124.856 183.739 124.899 183.792 124.724C184.33 122.963 185.201 119.28 184.378 115.916C185.07 114.744 185.375 113.294 185.167 111.613Z" fill="#4F3C30"/>
<path d="M168.189 128.079C168.036 128.613 167.55 130.101 166.553 131.576C166.394 131.087 166.16 130.197 166.004 128.838C165.94 128.845 165.879 128.857 165.814 128.857C165.76 128.857 165.709 128.846 165.656 128.841C165.918 131.154 166.394 132.149 166.415 132.191L166.429 132.184C167.699 135.379 171.177 137.64 174.459 137.64C177.741 137.64 181.219 135.379 182.489 132.184L182.502 132.191C182.523 132.149 183 131.154 183.261 128.841C183.209 128.846 183.158 128.857 183.104 128.857C183.038 128.857 182.977 128.845 182.913 128.838C182.757 130.197 182.524 131.087 182.365 131.576C181.367 130.1 180.882 128.613 180.728 128.079" fill="#EBEBEB"/>
<path d="M184.047 122.261H182.194C181.609 121.954 180.789 121.758 179.641 121.758C177.733 121.758 176.438 122.124 175.773 122.838C175.459 122.665 174.99 122.469 174.459 122.469C173.933 122.469 173.468 122.662 173.153 122.833C172.487 122.123 171.194 121.758 169.29 121.758C168.143 121.758 167.323 121.954 166.737 122.261H164.871V123.596L165.483 123.811C165.421 124.062 165.395 124.315 165.395 124.56C165.395 126.219 165.799 128.425 169.29 128.425C172.408 128.425 173.226 126.506 173.615 124.63C173.674 124.345 173.681 124.074 173.641 123.82C173.793 123.723 174.044 123.637 174.459 123.637C174.885 123.637 175.138 123.727 175.289 123.827C175.251 124.08 175.258 124.348 175.316 124.63C175.705 126.506 176.523 128.425 179.641 128.425C183.132 128.425 183.536 126.219 183.536 124.56C183.536 124.314 183.51 124.059 183.447 123.807L184.047 123.596V122.261H184.047ZM172.945 124.491C172.541 126.441 171.765 127.74 169.29 127.74C166.469 127.74 166.08 126.212 166.08 124.56C166.08 124.036 166.08 122.443 169.29 122.443C171.505 122.443 172.378 122.945 172.721 123.365C172.963 123.663 173.038 124.041 172.945 124.491ZM179.641 127.74C177.167 127.74 176.391 126.441 175.987 124.491C175.894 124.041 175.969 123.663 176.211 123.365C176.554 122.945 177.426 122.444 179.641 122.444C182.852 122.444 182.852 124.037 182.852 124.56C182.852 126.212 182.462 127.74 179.641 127.74Z" fill="#42404D"/>
<path d="M179.866 207.221L184.824 211.882L188.422 212.147L184.08 214.757L179.866 207.221Z" fill="#F8F9FB"/>
<path d="M171.037 167.677L182.198 152.177L179.916 150.361L185.274 149.917L185.574 146.085L179.238 138.75L179.233 144.062L171.037 167.677Z" fill="white"/>
<path d="M165.551 164.252L163.469 150.711L164.507 149.324L161.326 148.466C161.326 148.466 168.505 140.158 170.099 139.157L167.272 153.635L165.551 164.252Z" fill="white"/>
<path d="M163.691 155.808C163.63 157.617 162.064 159.884 160.804 157.839C160.11 156.709 160.876 153.871 161.998 153.542C162.919 153.278 163.736 154.6 163.691 155.808Z" fill="#00234B"/>
<path d="M169.81 139.043C167.267 140.101 165.029 142.274 163.547 145.149C162.059 148.037 160.987 152.441 161.864 155.866C161.92 156.08 162.159 156.037 162.17 155.816C162.242 154.086 162.142 152.427 162.414 150.704C162.692 148.945 163.225 147.258 163.974 145.749C165.396 142.904 167.511 140.916 169.966 139.765C170.31 139.6 170.171 138.9 169.81 139.043Z" fill="#00234B"/>
<path d="M182.242 150.374C183.036 148.165 182.969 145.384 182.47 143.082C182.003 140.937 180.909 137.998 179.238 137.04C179.127 136.976 178.972 137.119 179.055 137.276C179.505 138.141 180.132 138.821 180.587 139.693C181.131 140.73 181.542 141.874 181.809 143.082C182.364 145.577 182.131 147.751 181.698 150.224C181.698 150.231 181.698 150.239 181.698 150.246C179.965 150.146 178.816 152.805 178.261 154.571C177.434 157.167 177.178 160.119 177.694 162.858C177.572 163.058 177.495 163.308 177.483 163.558C177.434 164.245 177.917 165.01 178.55 164.788C178.944 164.652 179.255 164.173 179.238 163.637C179.221 163.137 178.927 162.672 178.555 162.522C178.372 162.45 178.205 162.457 178.061 162.522C177.878 160.513 177.905 158.511 178.327 156.516C178.733 154.607 180.232 149.717 182.37 151.333C184.002 152.569 183.33 156.595 183.003 158.532C182.675 160.47 182.086 162.207 181.426 163.959C181.331 163.851 181.226 163.766 181.109 163.723C180.715 163.58 180.326 163.866 180.176 164.345C180.038 164.788 180.149 165.317 180.482 165.567C180.754 165.775 181.12 165.732 181.348 165.453C181.409 165.432 181.47 165.389 181.515 165.303C182.88 162.786 183.608 159.533 183.863 156.509C184.035 154.485 184.146 151.097 182.242 150.374Z" fill="#00234B"/>
<path d="M162.536 155.923C162.503 156.966 161.598 158.275 160.87 157.095C160.471 156.444 160.909 154.8 161.559 154.614C162.086 154.464 162.558 155.222 162.536 155.923Z" fill="#0096D6"/>
<path d="M207.911 307.759C204.996 305.407 207.8 301.996 209.605 299.666C213.286 302.39 216.962 305.114 220.643 307.845C220.598 307.809 216.623 310.168 216.156 310.368C212.842 311.77 211.437 310.104 208.35 308.081C208.189 307.973 208.044 307.866 207.911 307.759Z" fill="#3C3C3B"/>
<path d="M234.052 163.266C233.247 164.681 231.42 164.388 230.46 163.144C229.499 161.9 229.177 160.084 228.894 158.368C228.339 154.979 227.939 151.548 227.384 148.159C226.962 145.571 225.646 142.754 225.618 140.158C227.833 141.116 229.915 143.454 231.42 145.721C232.897 147.944 233.197 150.089 233.736 152.863C234.174 155.13 235.246 161.178 234.052 163.266Z" fill="#0096D6"/>
<path d="M229.638 209.802C229.127 216.723 228.366 222.564 228.661 229.535C229.055 238.879 228.505 248.288 227.028 257.447C226.095 263.252 224.468 268.772 223.791 274.62C223.347 278.431 221.27 285.087 221.787 288.819C221.787 288.812 216.623 251.413 216.623 251.413L219.432 204.14L229.638 209.802Z" fill="#0082BA"/>
<path d="M210.698 304.162C209.727 305.506 209.16 307.229 209.31 309.224C209.643 313.671 212.558 312.649 214.846 312.506C218.133 312.306 221.476 313.657 224.763 313.814C225.54 313.85 230.998 313.8 231.131 313.328C231.553 311.819 230.704 310.139 229.605 309.381C228.511 308.624 227.223 308.502 226.007 308.18C222.93 307.38 222.669 303.905 220.221 302.067C217.389 299.93 212.953 301.045 210.698 304.162Z" fill="#3C3C3B"/>
<path d="M204.169 209.066C203.114 209.959 205.573 224.366 205.801 226.332C207.234 238.515 208.994 250.719 209.216 263.074C209.555 281.613 208.416 301.846 208.416 301.846C208.416 301.846 215.557 306.472 222.209 301.138C222.209 301.138 220.332 265.426 220.387 261.88C220.443 258.334 220.049 229.485 220.049 229.485V209.066H204.169Z" fill="#0096D6"/>
<path opacity="0.45" d="M204.852 213.656C204.852 213.656 218.022 217.173 220.787 216.222C223.552 215.271 229.277 214.321 229.277 214.321L229.643 209.802L204.463 208.801L204.852 213.656Z" fill="#0096D6"/>
<path d="M207.844 143.054C207.356 143.468 206.873 143.89 206.401 144.333C203.902 146.664 205.485 150.675 205.318 154.128C204.985 160.828 204.363 167.898 204.985 174.598C205.69 182.162 206.495 187.374 204.824 193.43C203.153 199.485 201.859 211.869 202.508 211.676C206.023 210.667 211.276 212.727 214.868 212.955C221.043 213.349 227.006 212.262 233.219 212.362C232.964 201.473 231.792 190.513 232.209 179.531C232.42 174.011 232.892 150.196 231.348 147.622C229.804 145.048 224.863 138.206 224.863 138.206C224.352 137.498 222.17 137.384 221.487 137.234C220.276 136.969 218.761 136.326 217.539 136.419C216.329 136.505 215.14 137.727 214.085 138.456C211.975 139.922 209.849 141.366 207.844 143.054Z" fill="#0096D6"/>
<path opacity="0.45" d="M210.021 166.647L212.331 151.511L215.962 171.773L206.995 181.89L210.021 166.647Z" fill="#0096D6"/>
<path opacity="0.45" d="M205.79 184.55C205.79 184.55 219.76 179.209 221.792 178.294C223.824 177.386 232.153 181.418 232.153 181.418V173.189L221.964 168.599L205.435 179.273L205.79 184.55Z" fill="#0096D6"/>
<path d="M203.308 164.467C203.164 164.753 203.119 165.26 203.047 166.183C202.681 170.98 202.819 175.213 203.658 179.867C203.802 180.653 203.974 181.504 204.474 181.983C205.179 182.655 206.167 182.291 206.989 181.897C209.171 180.854 211.398 179.924 213.586 178.823C216.412 177.4 218.888 175.634 221.798 174.49C221.526 174.598 220.721 170.687 220.26 170.394C219.249 169.75 216.978 171.495 215.956 171.781C215.385 171.945 209.31 173.018 209.31 173.068C208.505 170.315 209.666 166.705 210.376 164.081C208.561 164.081 206.739 164.009 204.924 164.081C203.93 164.116 203.513 164.052 203.308 164.467Z" fill="#F2C8B4"/>
<path d="M202.947 167.741L209.432 168.992L210.382 164.073L203.308 164.467L202.947 167.741Z" fill="#D6B9AB"/>
<path d="M206.889 143.575C205.057 145.398 203.53 147.844 202.52 150.317C200.765 154.629 201.526 160.756 201.764 165.489C201.764 165.489 210.954 166.418 210.959 166.418C211.176 166.44 211.748 156.931 211.776 156.316C212.031 150.932 211.853 146.099 210.721 140.987C209.36 141.488 208.066 142.41 206.889 143.575Z" fill="#0096D6"/>
<path d="M220.782 176.535L236.912 181.068L252.303 157.496L235.585 152.391L220.782 176.535Z" fill="#00234B"/>
<path d="M225.64 168.527C226.845 168.606 227.861 168.842 228.822 169.893C229.26 170.372 230.51 172.581 229.988 173.325C229.599 173.875 226.412 173.096 225.779 173.046C226.523 173.317 227.267 173.589 228.011 173.861C228.35 173.982 228.783 174.311 228.661 174.74C228.594 174.976 228.366 175.091 228.166 175.062C227.972 175.033 227.789 174.905 227.611 174.805C226.456 174.161 225.013 174.662 223.78 174.562C222.103 174.426 220.354 174.383 218.699 174.047C218.788 173.41 218.883 172.688 219.033 172.052C219.466 170.2 220.565 169.078 221.959 168.62C223.586 168.091 225.079 166.525 226.756 166.339C226.384 167.062 226.012 167.791 225.64 168.527Z" fill="#F2C8B4"/>
<path d="M239.899 179.774C239.671 179.845 238.644 178.809 238.422 178.615C238.033 178.279 236.701 177.236 236.751 176.549C236.778 176.185 238.794 177.064 238.933 177.121C238.594 176.985 237.367 175.312 237.478 174.826C237.672 173.975 239.399 175.241 239.766 175.427C239.355 175.227 238.75 174.755 238.539 174.233C237.811 172.431 240.21 173.468 240.76 173.618C240.199 173.203 239.066 172.252 239.816 171.409C240.182 171.001 243.053 170.98 243.286 171.423C243.303 171.459 243.43 171.816 243.441 171.852C243.142 174.662 242.375 178.923 239.899 179.774Z" fill="#F2C8B4"/>
<path d="M223.919 133.158C223.919 133.158 224.08 137.934 224.735 140.816L222.148 146.435C222.148 146.435 215.207 140.101 214.685 138.399C214.685 138.399 217.295 136.554 216.928 132.858C216.556 129.169 218.216 136.683 223.919 133.158Z" fill="#F2C8B4"/>
<path d="M223.919 134.938L223.847 129.469L216.839 129.948L216.667 134.974L216.517 139.457C217.495 139.986 218.522 140.444 219.344 141.301C220.182 142.181 221.009 143.032 221.748 144.054C221.72 144.011 222.936 141.802 223.053 141.566C223.38 140.901 223.608 140.143 223.841 139.421C224.035 138.799 223.98 138.42 223.963 137.762C223.93 136.819 223.935 135.875 223.919 134.938Z" fill="#F2C8B4"/>
<path d="M216.667 136.233C218.422 137.791 220.693 139.071 222.037 138.227C222.775 137.77 223.391 137.041 223.919 136.197L223.847 130.728L216.839 131.207L216.667 136.233Z" fill="#D6B9AB"/>
<path d="M216.819 133.975C218.066 133.964 221.108 134.222 223.769 133.975C225.614 133.803 227.492 133.11 228.566 131.699C235.438 122.676 225.883 109.569 216.044 109.846C208.733 110.052 206.899 134.056 216.819 133.975Z" fill="#F2DCB4"/>
<path d="M228.194 122.235V118.918C228.194 115.395 224.169 110.944 220.982 110.944C217.796 110.944 213.77 115.395 213.77 118.918V122.235C212.885 122.235 212.168 122.949 212.168 123.83V125.488C212.168 126.369 212.885 127.083 213.77 127.083C213.77 130.606 217.796 135.184 220.982 135.184C224.169 135.184 228.194 130.606 228.194 127.083C229.08 127.083 229.797 126.369 229.797 125.488V123.83C229.797 122.949 229.08 122.235 228.194 122.235Z" fill="#F6CCB8"/>
<path opacity="0.8" d="M221.406 129.284V135.184C224.44 135.184 228.272 130.606 228.272 127.083C229.114 127.083 229.797 126.369 229.797 125.488V123.83C229.797 122.949 229.114 122.235 228.272 122.235V118.918C228.272 115.395 224.44 110.944 221.406 110.944V123.862C220.293 126.336 219.881 128.965 219.881 128.965L221.406 129.284Z" fill="#F6CCB8"/>
<path d="M217.585 116.821C216.381 119.298 214.434 122.759 212.924 122.805C210.859 118.584 212.904 109.119 220.51 108.756C231.717 108.221 231.338 121.196 230.563 124.166C221.026 121.649 218.344 117.901 217.585 116.821Z" fill="#F2DCB4"/>
<path d="M228.39 126.676C228.254 127.819 228.049 128.568 227.91 128.98C227.036 127.738 226.61 126.486 226.476 126.037L228.06 123.059C228.101 122.989 228.076 122.9 228.004 122.86C227.932 122.82 227.839 122.844 227.797 122.914L226.23 125.864H220.982H215.735L213.672 122.035C213.63 121.966 213.537 121.942 213.465 121.982C213.393 122.022 213.368 122.11 213.409 122.18L215.489 126.037C215.355 126.486 214.929 127.738 214.055 128.98C213.916 128.568 213.711 127.819 213.574 126.675C213.519 126.681 213.465 126.691 213.408 126.691C213.36 126.691 213.316 126.682 213.269 126.678C213.499 128.624 213.916 129.462 213.934 129.497L213.947 129.491C215.059 132.179 218.107 134.083 220.982 134.083C223.858 134.083 226.905 132.179 228.018 129.491L228.03 129.497C228.048 129.462 228.466 128.624 228.695 126.678C228.649 126.682 228.604 126.691 228.557 126.691C228.5 126.692 228.446 126.681 228.39 126.676Z" fill="#EBEBEB"/>
</g>
<path d="M143.638 220.583L145.137 224.115L147.88 226.045L145.137 227.976L143.638 231.515L142.138 227.976L139.396 226.045L142.138 224.115L143.638 220.583Z" fill="white"/>
<path d="M245.627 188.476L247.126 192.007L249.875 193.938L247.126 195.868L245.627 199.407L244.128 195.868L241.385 193.938L244.128 192.007L245.627 188.476Z" fill="white"/>
<path d="M109.536 156.731L111.036 160.263L113.778 162.194L111.036 164.124L109.536 167.663L108.037 164.124L105.289 162.194L108.037 160.263L109.536 156.731Z" fill="white"/>
<path d="M256.757 246.646L258.257 250.178L261 252.108L258.257 254.045L256.757 257.577L255.253 254.045L252.51 252.108L255.253 250.178L256.757 246.646Z" fill="white"/>
<path d="M141.517 244.134L142.266 245.9L143.638 246.865L142.266 247.83L141.517 249.596L140.767 247.83L139.396 246.865L140.767 245.9L141.517 244.134Z" fill="white"/>
<path d="M137.296 136.966L138.051 138.732L139.423 139.697L138.051 140.662L137.296 142.428L136.546 140.662L135.175 139.697L136.546 138.732L137.296 136.966Z" fill="white"/>
<path d="M269.726 152.17L270.481 153.936L271.852 154.901L270.481 155.867L269.726 157.632L268.976 155.867L267.605 154.901L268.976 153.936L269.726 152.17Z" fill="white"/>
<path d="M269.726 206.621L270.481 208.387L271.852 209.352L270.481 210.317L269.726 212.083L268.976 210.317L267.605 209.352L268.976 208.387L269.726 206.621Z" fill="white"/>
<path d="M225.561 238.687L226.316 240.453L227.688 241.425L226.316 242.391L225.561 244.156L224.812 242.391L223.44 241.425L224.812 240.453L225.561 238.687Z" fill="white"/>
<path d="M121.38 196.254L122.129 198.027L123.501 198.992L122.129 199.957L121.38 201.723L120.63 199.957L119.259 198.992L120.63 198.027L121.38 196.254Z" fill="white"/>
<g filter="url(#filter1_d)">
<path fill-rule="evenodd" clip-rule="evenodd" d="M170.061 25H215.71C222.269 25 227.593 30.2777 227.593 36.7783V81.536C227.593 88.0367 222.269 93.3143 215.71 93.3143H170.061C163.502 93.3143 158.177 88.0367 158.177 81.536V36.7783C158.177 30.2777 163.502 25 170.061 25Z" fill="white"/>
<path d="M170.061 25.5H215.71C221.997 25.5 227.093 30.558 227.093 36.7783V81.536C227.093 87.7563 221.997 92.8143 215.71 92.8143H170.061C163.774 92.8143 158.677 87.7563 158.677 81.536V36.7783C158.677 30.558 163.774 25.5 170.061 25.5Z" stroke="#ECECEC"/>
</g>
<path d="M205.21 63.6908L204.051 63.4442V60.4897H199.419V63.4442L198.261 63.6908L199.419 71.0025L204.051 71.0027L205.21 63.6908Z" fill="#F2C8B4"/>
<path d="M199.419 60.5089V62.025L204.052 63.444V60.5089H199.419Z" fill="#F6CCB8"/>
<path d="M213.52 75.9918C213.426 75.3945 213.312 73.7433 213.161 73.1527L210.233 74.4546C210.257 74.6023 210.284 75.8196 210.312 75.9918H213.52Z" fill="#F2C8B4"/>
<path d="M193.158 75.9918C193.186 75.8204 193.213 74.6041 193.237 74.4568L190.309 73.1527C190.158 73.7433 190.043 75.3945 189.95 75.9918H193.158Z" fill="#F2C8B4"/>
<path d="M193.533 75.9919H209.936L209.922 75.2198L213.738 73.0962L212.465 67.4127C212.211 66.2789 211.356 65.376 210.237 65.0617L204.556 63.4661L201.735 69.6044L198.913 63.4661L193.233 65.0617C192.114 65.3759 191.258 66.2788 191.005 67.4127L189.732 73.0962L193.548 75.2198L193.533 75.9919Z" fill="#0696D6"/>
<path d="M198.768 61.2675C199.71 61.2598 202.009 61.4521 204.02 61.2675C205.415 61.1394 206.834 60.6229 207.646 59.5707C212.84 52.8423 205.618 43.0683 198.182 43.2748C192.656 43.4283 191.27 61.3283 198.768 61.2675Z" fill="#F2DCB4"/>
<path d="M207.041 52.6558V50.2468C207.041 47.6882 204.079 44.4559 201.735 44.4559C199.39 44.4559 196.428 47.6882 196.428 50.2468V52.6558C195.777 52.6558 195.249 53.1745 195.249 53.814V55.0185C195.249 55.6582 195.777 56.1767 196.428 56.1767C196.428 58.7352 199.39 62.0603 201.735 62.0603C204.079 62.0603 207.041 58.7354 207.041 56.1767C207.693 56.1767 208.221 55.6581 208.221 55.0185V53.814C208.22 53.1745 207.693 52.6558 207.041 52.6558Z" fill="#F6CCB8"/>
<path opacity="0.8" d="M201.735 57.7748V62.06C204.079 62.06 207.041 58.7351 207.041 56.1765C207.693 56.1765 208.22 55.6578 208.22 55.0183V53.8138C208.22 53.1741 207.693 52.6556 207.041 52.6556V50.2466C207.041 47.6879 204.079 44.4557 201.735 44.4557V53.8369C200.874 55.6338 200.555 57.5431 200.555 57.5431L201.735 57.7748Z" fill="#F6CCB8"/>
<path d="M199.195 48.4517C198.277 50.3118 196.792 52.9108 195.641 52.9455C194.067 49.7753 195.626 42.6681 201.425 42.3954C209.969 41.9934 209.68 51.7368 209.089 53.9673C201.819 52.0773 199.774 49.2625 199.195 48.4517Z" fill="#F2DCB4"/>
<path d="M207.022 56.1082C206.924 56.9584 206.778 57.515 206.679 57.8211C206.055 56.898 205.751 55.9675 205.655 55.6338L206.786 53.4196C206.815 53.368 206.798 53.3018 206.746 53.272C206.694 53.2423 206.628 53.2601 206.598 53.312L205.479 55.5047H201.733H197.986L196.514 52.6588C196.484 52.607 196.418 52.5892 196.367 52.6188C196.315 52.6486 196.297 52.7147 196.326 52.7664L197.811 55.6336C197.715 55.9675 197.411 56.898 196.787 57.8209C196.688 57.515 196.542 56.9583 196.444 56.1081C196.405 56.1124 196.366 56.1201 196.325 56.1201C196.291 56.1201 196.26 56.1131 196.227 56.1102C196.39 57.5568 196.688 58.1797 196.701 58.2057L196.71 58.2015C197.504 60.1997 199.68 61.6144 201.733 61.6144C203.786 61.6144 205.962 60.1997 206.756 58.2015L206.765 58.2057C206.777 58.1797 207.076 57.5568 207.239 56.1102C207.206 56.1131 207.175 56.1201 207.141 56.1201C207.1 56.1202 207.061 56.1125 207.022 56.1082Z" fill="#EBEBEB"/>
<path d="M188.904 62.3895H182.532V64.9499H188.904V62.3895Z" fill="#D9D9D9"/>
<path d="M189.365 63.2545L188.499 62.8552V60.1016H182.94V62.8552L182.07 63.2305L182.302 71.0397H182.94V72.2371H188.499V71.0397H189.134L189.365 63.2545Z" fill="#F6CCB8"/>
<path d="M182.938 60.1013V61.4416L188.497 62.6746V60.1013H182.938Z" fill="#F6CCB8"/>
<path d="M192.841 76.7697C192.946 72.6662 192.719 64.5338 189.362 63.2723L189.155 64.0483C188.798 65.0723 187.881 66.5154 185.705 66.5154C183.25 66.5154 182.314 64.6148 182.023 63.6911L181.912 63.2725C178.554 64.5341 178.455 72.6664 178.626 76.7698H192.841V76.7697Z" fill="white"/>
<path d="M200.038 76.7697L198.767 67.9202C198.518 66.1875 197.224 64.7894 195.515 64.4084L188.911 62.9355L186.015 76.7697H200.038Z" fill="#EBEBEB"/>
<path d="M185.421 76.7698L182.527 62.9358L175.923 64.4085C174.214 64.7895 172.92 66.1876 172.671 67.9203L171.399 76.7698H185.421Z" fill="#EBEBEB"/>
<path d="M181.4 67.3402L180.367 68.7513L184.93 76.7699H185.42L182.532 62.3896L179.983 63.5928L180.073 66.249L181.4 67.3402Z" fill="#D9D9D9"/>
<path d="M186.507 76.7692L191.069 68.7506L190.037 67.3395L191.363 66.2483L191.454 63.5921L188.904 62.3889L186.017 76.7692H186.507Z" fill="#D9D9D9"/>
<path d="M193.933 72.4845H193.286V71.8365H192.476V72.4845H191.828V73.2945H192.476V73.9423H193.286V73.2945H193.933V72.4845Z" fill="#0696D6"/>
<path d="M194.986 74.5336H190.775V75.3759H194.986V74.5336Z" fill="#0696D6"/>
<path d="M191.784 52.2577L191.972 49.8114C191.972 46.6125 188.915 44.0205 185.718 44.0205C182.519 44.0205 179.464 46.6125 179.464 49.8114L179.652 52.2552C179.473 52.2985 179.312 52.3805 179.177 52.496C178.927 52.7091 178.769 53.0241 178.769 53.3786V54.5831C178.769 55.2199 179.282 55.7366 179.92 55.7405C179.92 58.7612 183.55 61.6247 185.718 61.6247C187.887 61.6247 191.517 58.7616 191.517 55.7409C192.152 55.7363 192.667 55.2204 192.667 54.5836V53.3791C192.666 52.8351 192.29 52.3821 191.784 52.2577Z" fill="#F6CCB8"/>
<path opacity="0.8" d="M191.784 52.2577L191.972 49.8114C191.972 46.6125 188.915 44.0205 185.718 44.0205C185.718 44.0205 185.717 44.0205 185.717 44.0205V52.2436C184.872 54.0404 184.327 56.6447 184.327 56.6447H185.717V61.6248C185.717 61.6248 185.718 61.6248 185.718 61.6248C185.718 61.6248 185.719 61.6248 185.719 61.6248C187.888 61.6242 191.516 58.7613 191.516 55.741C192.152 55.7365 192.666 55.2205 192.666 54.5837V53.3792C192.666 52.8351 192.29 52.3821 191.784 52.2577Z" fill="#F6CCB8"/>
<path d="M192.891 44.1898C192.866 43.9911 192.686 43.8499 192.487 43.873C191.087 44.0355 191.004 43.7335 188.563 42.2965C186.347 40.9916 184.079 41.5119 182.568 42.6351C176.565 44.0206 178.781 51.2454 179.498 53.1932C179.538 53.301 179.696 53.275 179.701 53.1602C179.762 51.8488 180.087 48.4114 181.812 47.1997C185.413 49.6548 189.092 49.7884 191.186 48.3283C191.762 49.6713 191.794 51.8161 191.764 52.9382C191.761 53.0605 191.934 53.0892 191.97 52.9722C192.33 51.7926 192.914 49.326 192.362 47.0721C192.826 46.2874 193.03 45.3162 192.891 44.1898Z" fill="#4F3C30"/>
<path d="M181.518 55.22C181.416 55.5775 181.09 56.5739 180.422 57.5621C180.316 57.2345 180.159 56.6384 180.054 55.7278C180.012 55.7325 179.971 55.7407 179.927 55.7407C179.891 55.7407 179.857 55.7332 179.822 55.7301C179.997 57.2792 180.316 57.9461 180.33 57.974L180.339 57.9695C181.19 60.1092 183.519 61.6241 185.718 61.6241C187.917 61.6241 190.246 60.1093 191.097 57.9695L191.106 57.974C191.12 57.946 191.439 57.2792 191.614 55.7301C191.579 55.7332 191.545 55.7407 191.509 55.7407C191.465 55.7407 191.424 55.7325 191.381 55.7278C191.277 56.6384 191.12 57.2343 191.014 57.5621C190.346 56.5737 190.02 55.5773 189.917 55.22" fill="#EBEBEB"/>
<path d="M192.141 51.3226H190.899C190.507 51.117 189.958 50.9858 189.189 50.9858C187.911 50.9858 187.044 51.2309 186.599 51.7091C186.388 51.5933 186.074 51.4616 185.718 51.4616C185.366 51.4616 185.054 51.5908 184.844 51.7059C184.397 51.2297 183.531 50.9858 182.256 50.9858C181.487 50.9858 180.938 51.117 180.546 51.3226H179.295V52.217L179.706 52.3609C179.664 52.5286 179.647 52.6986 179.647 52.8626C179.647 53.9739 179.917 55.4512 182.256 55.4512C184.344 55.4512 184.892 54.1661 185.153 52.9093C185.192 52.7187 185.197 52.5371 185.17 52.3666C185.272 52.3016 185.44 52.2445 185.718 52.2445C186.003 52.2445 186.173 52.3044 186.274 52.3716C186.249 52.5406 186.253 52.7205 186.292 52.9093C186.553 54.1662 187.1 55.4512 189.189 55.4512C191.528 55.4512 191.798 53.9739 191.798 52.8626C191.798 52.6977 191.781 52.5268 191.738 52.3581L192.141 52.217V51.3226H192.141ZM184.704 52.816C184.433 54.1223 183.913 54.9924 182.256 54.9924C180.366 54.9924 180.106 53.9687 180.106 52.8626C180.106 52.5118 180.106 51.4447 182.256 51.4447C183.74 51.4447 184.324 51.7805 184.554 52.0621C184.716 52.2613 184.766 52.5149 184.704 52.816ZM189.19 54.9924C187.532 54.9924 187.012 54.1223 186.741 52.816C186.679 52.515 186.73 52.2613 186.892 52.0623C187.121 51.7806 187.706 51.4448 189.19 51.4448C191.34 51.4448 191.34 52.5119 191.34 52.8627C191.34 53.9687 191.079 54.9924 189.19 54.9924Z" fill="#42404D"/>
<g filter="url(#filter2_d)">
<path fill-rule="evenodd" clip-rule="evenodd" d="M54.367 71.2775H100.016C106.575 71.2775 111.9 76.5552 111.9 83.0558V127.813C111.9 134.314 106.575 139.592 100.016 139.592H54.367C47.8084 139.592 42.4836 134.314 42.4836 127.813V83.0558C42.4836 76.5552 47.8084 71.2775 54.367 71.2775Z" fill="white"/>
<path d="M54.367 71.7775H100.016C106.303 71.7775 111.4 76.8355 111.4 83.0558V127.813C111.4 134.034 106.303 139.092 100.016 139.092H54.367C48.0803 139.092 42.9836 134.034 42.9836 127.813V83.0558C42.9836 76.8355 48.0803 71.7775 54.367 71.7775Z" stroke="#ECECEC"/>
</g>
<path d="M76.6337 96.3361H76.2632C76.2632 96.3361 75.8561 96.8272 76.1556 97.2258H76.58C76.3535 96.8951 76.3367 96.6675 76.6337 96.3361Z" fill="#BD2A2E"/>
<path d="M78.5334 116.866C78.8179 114.57 74.6348 114.873 73.2052 114.05C72.8229 113.83 72.5921 113.569 72.522 113.292H70.0833C70.1922 116.653 76.4323 115.221 77.2338 116.866C77.2957 116.993 77.3301 117.123 77.3463 117.256H78.4605C78.4918 117.129 78.517 116.999 78.5334 116.866Z" fill="#0696D6"/>
<path d="M78.5335 116.866C78.8179 114.57 74.6349 114.873 73.2053 114.05C72.8229 113.83 72.5921 113.569 72.5221 113.292H71.8344C71.843 113.325 71.8526 113.357 71.8635 113.39C72.221 114.462 73.7023 114.787 75.2196 115.079C76.7368 115.372 78.496 115.677 78.1013 117.224C78.0985 117.234 78.0947 117.245 78.0919 117.256H78.4605C78.4919 117.129 78.5171 116.999 78.5335 116.866Z" fill="#24388A"/>
<path d="M76.0221 97.6757C70.6955 96.8312 67.6622 95.6608 68.9081 92.0444C70.1063 88.5668 73.7221 90.1622 74.4371 90.5181C73.7739 91.2669 73.1208 92.4938 73.8416 93.945C74.568 95.407 75.2363 96.5441 76.2531 96.5441C77.2701 96.5441 77.9383 95.407 78.6646 93.945C79.391 92.483 78.7057 91.1996 78.0375 90.4525C78.0375 90.4525 77.3165 86.4459 71.9502 86.7163C66.1466 87.0088 63.151 92.4614 65.9288 96.6363C68.1598 99.9892 79.4443 100.925 83.1696 102.051C84.6954 102.512 85.559 103.359 85.8009 104.26H89.5332C89.273 99.7787 80.9182 98.4522 76.0221 97.6757Z" fill="#0696D6"/>
<path d="M74.1219 93.9374C74.1219 93.9374 74.7229 93.9699 74.6418 94.8633C74.6418 94.8633 74.3981 94.7009 74.1219 93.9374Z" fill="white"/>
<path d="M77.5172 90.4525C76.5911 90.2575 75.9414 90.4525 75.9414 90.4525C77.3547 90.5175 78.147 91.1023 78.122 92.4018C78.097 93.7014 77.4675 95.9594 76.3638 95.9594C75.2602 95.9594 74.1799 94.6051 73.8412 93.945C74.5675 95.407 75.2358 96.5441 76.2526 96.5441C77.2696 96.5441 77.9379 95.407 78.6641 93.945C79.3905 92.483 78.7052 91.1996 78.037 90.4525C78.037 90.4525 77.316 86.4459 71.9497 86.7163C71.7972 86.7239 71.6472 86.7361 71.4987 86.7507C76.6117 86.626 77.5172 90.4525 77.5172 90.4525Z" fill="#24388A"/>
<path d="M78.3857 93.9374C78.3857 93.9374 77.7848 93.9699 77.8659 94.8633C77.866 94.8633 78.1096 94.7009 78.3857 93.9374Z" fill="white"/>
<path d="M89.5181 104.077C89.5172 104.068 89.5157 104.06 89.5147 104.051C89.5079 103.992 89.4995 103.934 89.4899 103.877C89.4866 103.857 89.4828 103.837 89.4792 103.817C89.47 103.768 89.4598 103.719 89.4485 103.67C89.4446 103.653 89.4409 103.636 89.4367 103.619C89.421 103.556 89.4039 103.493 89.3848 103.431C89.3815 103.42 89.3775 103.409 89.3741 103.399C89.3576 103.347 89.34 103.296 89.3211 103.245C89.3141 103.226 89.3069 103.207 89.2995 103.188C89.2815 103.142 89.2625 103.096 89.2426 103.051C89.2357 103.036 89.2294 103.02 89.2226 103.005C89.1957 102.946 89.1676 102.888 89.1376 102.831C89.1313 102.819 89.1245 102.807 89.118 102.795C89.0933 102.749 89.0677 102.703 89.041 102.658C89.0305 102.64 89.0199 102.623 89.0091 102.605C88.9829 102.562 88.9556 102.519 88.9274 102.477C88.9183 102.463 88.9098 102.45 88.9006 102.436C88.8637 102.382 88.8255 102.329 88.7858 102.276C88.7759 102.263 88.7657 102.25 88.7557 102.237C88.7243 102.196 88.6923 102.156 88.6591 102.116C88.6452 102.099 88.6312 102.082 88.6169 102.065C88.583 102.025 88.5482 101.985 88.5126 101.946C88.5016 101.934 88.4911 101.922 88.48 101.91C88.4341 101.86 88.387 101.811 88.3385 101.763C88.325 101.749 88.3109 101.736 88.2972 101.722C88.2603 101.686 88.2227 101.65 88.1844 101.615C88.167 101.599 88.1498 101.583 88.1323 101.567C88.0912 101.53 88.0493 101.493 88.0069 101.456C87.9945 101.446 87.9824 101.435 87.9697 101.424C87.9161 101.379 87.8611 101.334 87.8052 101.29C87.7874 101.276 87.7692 101.262 87.7513 101.248C87.7104 101.216 87.6689 101.185 87.6269 101.154C87.606 101.138 87.5849 101.123 87.5638 101.107C87.517 101.073 87.4697 101.04 87.4216 101.007C87.4074 100.997 87.3935 100.987 87.379 100.977C87.3186 100.936 87.257 100.895 87.1948 100.855C87.1728 100.841 87.1506 100.827 87.1285 100.813C87.0844 100.785 87.0401 100.758 86.9952 100.73C86.9705 100.715 86.9459 100.7 86.9209 100.685C86.8698 100.655 86.818 100.625 86.7658 100.595C86.7489 100.585 86.7325 100.575 86.7154 100.566C86.6504 100.529 86.5842 100.493 86.5174 100.457C86.4902 100.442 86.4627 100.428 86.4354 100.414C86.3905 100.39 86.3453 100.366 86.2997 100.343C86.2708 100.328 86.2418 100.314 86.2124 100.299C86.1583 100.272 86.1035 100.245 86.0485 100.218C86.0174 100.203 85.9863 100.188 85.9552 100.174C85.8977 100.146 85.8399 100.119 85.7817 100.093C85.7491 100.078 85.7165 100.063 85.6838 100.049C85.6391 100.029 85.5941 100.009 85.5489 99.9892C85.5155 99.9746 85.4819 99.96 85.4483 99.9457C85.394 99.9225 85.3393 99.8996 85.2843 99.8768C85.2384 99.8578 85.1921 99.839 85.1458 99.8202C85.0963 99.8002 85.0469 99.7803 84.997 99.7607C84.9587 99.7457 84.9202 99.7308 84.8817 99.7161C84.8394 99.6998 84.7969 99.6836 84.7541 99.6675C84.7148 99.6527 84.6755 99.6379 84.6358 99.6231C84.5858 99.6047 84.5354 99.5865 84.4849 99.5683C84.423 99.546 84.3608 99.524 84.2983 99.5022C84.2565 99.4876 84.2148 99.473 84.1727 99.4587C84.1282 99.4435 84.0835 99.4284 84.0386 99.4133C84.0004 99.4006 83.9619 99.3879 83.9236 99.3752C83.8777 99.3602 83.8319 99.3451 83.7859 99.3301C83.7482 99.318 83.7104 99.3061 83.6728 99.2942C83.5882 99.2674 83.5035 99.241 83.4183 99.215C83.3849 99.2048 83.3515 99.1946 83.318 99.1845C83.2669 99.169 83.2155 99.1538 83.1643 99.1388C83.1321 99.1292 83.1 99.12 83.0677 99.1106C83.014 99.095 82.9604 99.0794 82.9065 99.0641C82.9045 99.0635 82.9027 99.063 82.9008 99.0624C82.7719 99.0259 82.6423 98.9901 82.5123 98.9551C82.4895 98.949 82.4667 98.9427 82.4439 98.9367C82.3842 98.9208 82.3246 98.905 82.2647 98.8893C82.2432 98.8836 82.2216 98.8781 82.1999 98.8724C81.9993 98.8204 81.798 98.7703 81.5961 98.7217C81.583 98.7185 81.5697 98.7153 81.5566 98.7122C81.4895 98.6961 81.4226 98.6802 81.3556 98.6645C81.3445 98.662 81.3335 98.6595 81.3225 98.6568C81.1052 98.6062 80.8877 98.5573 80.6704 98.5102C80.6702 98.5102 80.67 98.5101 80.6697 98.5101C79.0184 98.1521 77.3856 97.8927 76.0214 97.6764C70.6947 96.8318 67.6614 95.6615 68.9074 92.0451C69.3629 90.7228 70.1682 90.1343 71.0303 89.9319C70.0623 90.1033 68.9567 90.3273 68.3549 92.646C67.6889 95.2127 68.4686 96.5447 71.6851 97.4218C74.9014 98.2991 76.8128 98.2174 81.1881 99.3114C81.4368 99.3737 81.6866 99.436 81.9359 99.4989C85.471 100.489 88.5102 102.118 88.7802 104.261H89.5325C89.529 104.199 89.5246 104.137 89.5181 104.077Z" fill="#24388A"/>
<path d="M68.5176 88.016C68.5176 88.016 63.8834 90.63 65.9221 95.2285C67.9607 99.8269 75.6252 99.5495 78.9753 100.784C78.9753 100.784 76.9176 99.916 72.1896 98.9455C67.4617 97.9749 66.0234 94.922 65.9221 92.9542C65.8208 90.9865 67.2521 88.9376 68.5176 88.016Z" fill="white"/>
<path opacity="0.3" d="M84.2594 100.312L74.3932 99.9246L64.5274 99.556C64.5274 99.556 64.0733 107.414 70.5284 109.455C70.5284 109.455 73.5925 110.23 73.5925 112.089C73.5925 113.949 73.5925 116.635 73.5925 117.668C73.5925 118.701 67.5745 120.174 67.5745 121.465C67.5745 122.757 70.2089 123.221 74.393 123.221C78.5772 123.221 81.2116 122.757 81.2116 121.465C81.2116 120.174 75.4778 118.986 75.4778 117.953C75.4778 116.92 75.4778 114.233 75.4778 112.374C75.4778 110.514 78.2589 109.455 78.2589 109.455C84.7142 107.415 84.2594 100.312 84.2594 100.312Z" fill="#0696D6"/>
<path d="M85.086 100.084L75.2198 99.6962L65.3536 100.084C65.3536 100.084 64.8999 107.186 71.3551 109.226L71.3538 109.227C71.3538 109.227 74.1349 110.286 74.1349 112.145C74.1349 114.005 74.1349 116.691 74.1349 117.724C74.1349 118.757 68.4011 119.945 68.4011 121.237C68.4011 122.528 71.0355 122.993 75.2197 122.993C79.4038 122.993 82.0382 122.528 82.0382 121.237C82.0382 119.945 76.3044 118.757 76.3044 117.724C76.3044 116.691 76.3044 114.005 76.3044 112.145C76.3044 110.286 79.0856 109.227 79.0856 109.227L79.0843 109.226C85.5395 107.186 85.086 100.084 85.086 100.084Z" fill="#FFD400"/>
<path d="M72.258 107.738C70.1919 106.326 68.952 104.363 68.5388 99.9894L65.9216 100.084C65.9216 100.084 66.197 104.776 68.5388 106.67C70.8805 108.564 74.5308 109.546 74.5308 111.345C74.5308 113.144 74.5308 117.38 74.5308 118.069C74.5308 118.758 71.4315 120.342 70.2262 120.893C69.441 121.252 69.1529 121.815 69.0473 122.164C69.5795 122.474 70.426 122.686 71.5338 122.818C71.4852 122.589 71.5225 122.145 72.1893 121.547C73.1878 120.652 75.013 118.827 75.013 118.069C75.013 117.311 75.013 112.645 75.013 111.345C75.013 110.045 74.3242 109.15 72.258 107.738Z" fill="#FFC81A"/>
<path d="M85.0861 100.084L75.2199 99.6962L65.3537 100.084C65.3537 100.084 65.3285 100.481 65.3752 101.114C66.7428 101.57 69.8672 102.331 75.4783 102.331C83.4848 102.331 81.9352 105.172 79.7658 107.083C77.5962 108.994 75.6334 109.511 75.6334 112.352C75.6334 115.193 75.6334 117.001 75.6334 117.982C75.6334 118.964 77.7511 120.255 78.991 121.03C80.0585 121.697 80.2063 122.096 79.7652 122.689C81.2176 122.42 82.0386 121.957 82.0386 121.236C82.0386 119.945 76.3048 118.757 76.3048 117.724C76.3048 116.691 76.3048 114.005 76.3048 112.145C76.3048 110.285 79.0859 109.226 79.0859 109.226L79.0846 109.226C85.5396 107.186 85.0861 100.084 85.0861 100.084Z" fill="#F9A023"/>
<path d="M83.03 99.3602C81.0787 99.1537 78.3018 99.0244 75.2199 99.0244C72.138 99.0244 69.3613 99.1536 67.4098 99.3602H64.5271V100.083C64.5271 100.668 69.3144 101.142 75.2199 101.142C81.1255 101.142 85.9127 100.668 85.9127 100.083V99.3602H83.03Z" fill="#FDB91F"/>
<path d="M75.2191 100.419C81.1246 100.419 85.9119 99.9452 85.9119 99.3603C85.9119 98.7755 81.1246 98.3014 75.2191 98.3014C69.3136 98.3014 64.5263 98.7755 64.5263 99.3603C64.5263 99.9452 69.3136 100.419 75.2191 100.419Z" fill="#FFCF16"/>
<path d="M75.2202 100.11C69.6347 100.11 65.9755 99.705 65.0187 99.3605C65.9756 99.0161 69.6347 98.6116 75.2202 98.6116C80.8059 98.6116 84.4651 99.0161 85.4218 99.3605C84.465 99.705 80.8059 100.11 75.2202 100.11Z" fill="#F9AD22"/>
<path d="M65.0187 99.3609C65.6614 99.5923 67.5252 99.8506 70.3715 99.9954C70.8627 99.484 71.7613 98.9592 73.3891 98.6272C68.8374 98.7036 65.8665 99.0557 65.0187 99.3609Z" fill="#F58E25"/>
<path d="M74.84 120.808C75.7085 120.851 77.3833 119.984 77.3833 119.984L76.9376 119.285L74.84 120.808Z" fill="#F9A023"/>
<path d="M76.3902 111.593C76.5431 111.094 76.8875 110.666 77.2819 110.318H75.2206C75.2206 110.318 74.3463 110.776 73.8168 111.08C74.0116 111.398 74.1359 111.754 74.1359 112.145C74.1359 112.183 74.1359 112.221 74.1359 112.259C74.5648 112.096 75.4457 111.786 76.3902 111.593Z" fill="#F9A023"/>
<path d="M89.5325 104.26H85.8001C86.1489 105.559 85.2047 106.972 83.0821 107.509C79.7129 108.362 70.2934 109.762 70.0872 113.011C70.0811 113.108 70.0806 113.202 70.0836 113.292H72.5224C72.3304 112.535 73.3539 111.661 75.8479 111.193C79.1863 110.566 88.2803 110.065 89.4066 105.517C89.5167 105.072 89.5552 104.654 89.5325 104.26Z" fill="#0696D6"/>
<path d="M89.5358 104.337C89.535 104.318 89.5345 104.299 89.5336 104.28C89.5332 104.273 89.5324 104.267 89.532 104.26H88.7797C88.8394 104.734 88.7657 105.232 88.5301 105.755C87.0356 109.069 78.9784 109.848 75.697 110.693C72.5159 111.512 71.5639 112.27 71.8342 113.292H72.5219C72.33 112.535 73.3534 111.661 75.8475 111.193C79.1859 110.567 88.2799 110.065 89.4061 105.517C89.4253 105.439 89.4416 105.363 89.4565 105.288C89.4609 105.265 89.4647 105.243 89.4688 105.221C89.4791 105.165 89.4881 105.109 89.4962 105.053C89.4992 105.032 89.5025 105.011 89.5051 104.99C89.5145 104.917 89.5226 104.844 89.5279 104.772C89.5284 104.766 89.5284 104.761 89.5288 104.755C89.5336 104.689 89.5364 104.623 89.5377 104.557C89.5382 104.536 89.5382 104.515 89.5383 104.494C89.5385 104.441 89.5377 104.389 89.5358 104.337Z" fill="#24388A"/>
<path d="M70.9543 112.837C71.4191 111.189 75.7951 109.523 75.7951 109.523C71.4475 110.871 70.449 112.048 70.4649 113.292H70.8695C70.8816 113.151 70.9084 113 70.9543 112.837Z" fill="white"/>
<path d="M70.8694 113.292H70.4647C70.4651 113.325 70.4658 113.357 70.4675 113.39C70.5366 114.669 71.9287 114.982 71.9287 114.982C71.9287 114.982 70.7601 114.578 70.8694 113.292Z" fill="white"/>
<path d="M77.3472 117.255C77.5451 118.889 74.5387 120.859 74.8404 120.808C75.5639 120.685 77.9499 119.332 78.4614 117.255H77.3472Z" fill="#0696D6"/>
<path d="M78.0925 117.255C77.6904 118.784 76.569 119.883 74.84 120.808C75.5634 120.685 77.9495 119.332 78.461 117.255H78.0925Z" fill="#24388A"/>
<path d="M76.7327 97.4289C76.6743 97.3562 76.6238 97.2893 76.5801 97.2256H76.1557C76.1851 97.2648 76.219 97.3035 76.2632 97.3404C76.7574 97.752 76.5103 98.1473 76.2632 98.2955C76.0162 98.4437 75.9834 98.9541 76.1645 99.1519C76.3456 99.3495 76.2962 99.8306 76.2962 99.8306L76.4609 99.5635L76.6009 99.8306C76.6009 99.8306 76.6996 99.3906 76.5021 99.1848C76.3046 98.9789 76.2963 98.7401 76.5103 98.5342C76.7243 98.3284 77.0949 97.8797 76.7327 97.4289Z" fill="#BD2A2E"/>
<g filter="url(#filter3_d)">
<path fill-rule="evenodd" clip-rule="evenodd" d="M289.06 71.2775H334.709C341.268 71.2775 346.593 76.5552 346.593 83.0558V127.813C346.593 134.314 341.268 139.592 334.709 139.592H289.06C282.501 139.592 277.176 134.314 277.176 127.813V83.0558C277.176 76.5552 282.501 71.2775 289.06 71.2775Z" fill="white"/>
<path d="M289.06 71.7775H334.709C340.996 71.7775 346.093 76.8355 346.093 83.0558V127.813C346.093 134.034 340.996 139.092 334.709 139.092H289.06C282.773 139.092 277.676 134.034 277.676 127.813V83.0558C277.676 76.8355 282.773 71.7775 289.06 71.7775Z" stroke="#ECECEC"/>
</g>
<path d="M314.761 106.134H310.756V109.929C310.756 110.27 310.485 110.541 310.144 110.541C309.803 110.541 309.532 110.27 309.532 109.929V106.134H295.908V114.669C295.908 117.528 297.176 120.082 299.187 121.813C300.84 123.238 302.991 124.095 305.334 124.095C307.861 124.095 310.153 123.099 311.849 121.481C313.642 119.767 314.761 117.345 314.761 114.66V106.134ZM310.581 114.258C310.467 114.372 310.31 114.433 310.144 114.433C310.1 114.433 310.065 114.433 310.021 114.424C309.986 114.415 309.943 114.406 309.908 114.389C309.873 114.372 309.838 114.354 309.803 114.328C309.768 114.302 309.742 114.284 309.707 114.249C309.593 114.135 309.532 113.978 309.532 113.812C309.532 113.654 309.602 113.497 309.707 113.383C309.733 113.357 309.768 113.331 309.803 113.305C309.838 113.278 309.873 113.261 309.908 113.252C309.943 113.235 309.986 113.226 310.021 113.217C310.222 113.174 310.432 113.243 310.572 113.383C310.686 113.497 310.747 113.654 310.747 113.812C310.756 113.987 310.695 114.144 310.581 114.258Z" fill="#16ADE1"/>
<path d="M318.338 105.329C317.524 105.329 316.737 105.434 315.985 105.627V114.668C315.985 117.563 314.849 120.256 312.785 122.276C314.341 123.422 316.256 124.095 318.338 124.095C320.707 124.095 322.876 123.212 324.529 121.76C324.511 121.751 324.494 121.734 324.485 121.716L318.32 115.552C318.084 115.315 318.084 114.922 318.32 114.686C318.556 114.45 318.95 114.45 319.186 114.686L325.351 120.851C325.368 120.868 325.377 120.877 325.395 120.894C326.846 119.242 327.729 117.073 327.729 114.703C327.721 109.527 323.523 105.329 318.338 105.329ZM317.621 113.995C317.507 114.109 317.35 114.179 317.183 114.179C317.14 114.179 317.105 114.17 317.061 114.17C317.017 114.161 316.982 114.152 316.947 114.135C316.912 114.117 316.877 114.1 316.842 114.083C316.807 114.056 316.781 114.039 316.746 114.004C316.633 113.89 316.571 113.733 316.571 113.575C316.571 113.532 316.571 113.497 316.58 113.453C316.589 113.409 316.598 113.374 316.615 113.339C316.633 113.304 316.65 113.269 316.667 113.234C316.694 113.199 316.711 113.173 316.746 113.138C316.886 112.998 317.105 112.928 317.297 112.972C317.341 112.981 317.376 112.989 317.411 113.007C317.446 113.024 317.481 113.042 317.516 113.068C317.551 113.094 317.577 113.112 317.612 113.147C317.638 113.173 317.664 113.208 317.691 113.243C317.717 113.278 317.734 113.313 317.752 113.348C317.769 113.383 317.778 113.427 317.787 113.462C317.796 113.497 317.796 113.54 317.796 113.584C317.796 113.715 317.734 113.881 317.621 113.995Z" fill="#1B3954"/>
<path d="M318.766 105.329C317.952 105.329 317.165 105.434 316.413 105.627V114.668C316.413 117.563 315.277 120.256 313.213 122.276C314.769 123.422 316.684 124.095 318.766 124.095C321.135 124.095 323.304 123.212 324.957 121.76C324.939 121.751 324.922 121.734 324.913 121.716L318.748 115.552C318.512 115.315 318.512 114.922 318.748 114.686C318.984 114.45 319.378 114.45 319.614 114.686L325.779 120.851C325.796 120.868 325.805 120.877 325.823 120.894C327.274 119.242 328.157 117.073 328.157 114.703C328.149 109.527 323.951 105.329 318.766 105.329ZM318.049 113.995C317.935 114.109 317.778 114.179 317.611 114.179C317.568 114.179 317.533 114.17 317.489 114.17C317.445 114.161 317.41 114.152 317.375 114.135C317.34 114.117 317.305 114.1 317.27 114.083C317.235 114.056 317.209 114.039 317.174 114.004C317.06 113.89 316.999 113.733 316.999 113.575C316.999 113.532 316.999 113.497 317.008 113.453C317.017 113.409 317.026 113.374 317.043 113.339C317.06 113.304 317.078 113.269 317.095 113.234C317.122 113.199 317.139 113.173 317.174 113.138C317.314 112.998 317.533 112.928 317.725 112.972C317.769 112.981 317.804 112.989 317.839 113.007C317.874 113.024 317.909 113.042 317.944 113.068C317.979 113.094 318.005 113.112 318.04 113.147C318.066 113.173 318.092 113.208 318.119 113.243C318.145 113.278 318.162 113.313 318.18 113.348C318.197 113.383 318.206 113.427 318.215 113.462C318.224 113.497 318.224 113.54 318.224 113.584C318.224 113.715 318.162 113.881 318.049 113.995Z" fill="#FFD400"/>
<path d="M314.761 97.2318C314.761 94.6259 313.703 92.2736 311.998 90.5684C310.292 88.8633 307.931 87.8052 305.334 87.8052C303.577 87.8052 301.933 88.2861 300.525 89.1256C297.762 90.7696 295.908 93.7864 295.908 97.2405V104.927H314.761V97.2318ZM302.492 92.431C300.805 93.4367 299.755 95.273 299.755 97.2318C299.755 97.5728 299.484 97.8439 299.143 97.8439C298.802 97.8439 298.531 97.5728 298.531 97.2318C298.531 94.8445 299.808 92.5972 301.863 91.3729C302.151 91.1981 302.527 91.2942 302.702 91.5916C302.877 91.8801 302.781 92.2561 302.492 92.431Z" fill="#1B3954"/>
<g filter="url(#filter4_d)">
<path fill-rule="evenodd" clip-rule="evenodd" d="M293.467 184.767H339.117C345.675 184.767 351 190.045 351 196.546V241.303C351 247.804 345.675 253.082 339.117 253.082H293.467C286.909 253.082 281.584 247.804 281.584 241.303V196.546C281.584 190.045 286.909 184.767 293.467 184.767Z" fill="white"/>
<path d="M293.467 185.267H339.117C345.403 185.267 350.5 190.325 350.5 196.546V241.303C350.5 247.524 345.403 252.582 339.117 252.582H293.467C287.181 252.582 282.084 247.524 282.084 241.303V196.546C282.084 190.325 287.181 185.267 293.467 185.267Z" stroke="#ECECEC"/>
</g>
<path d="M313.661 210.385C314.929 210.427 316.623 210.899 317.971 212.089C320.15 214.013 320.108 216.316 317.837 218.142C317.557 218.367 317.264 218.581 316.972 218.794C315.834 219.625 314.705 220.448 314.393 221.908C314.264 222.509 313.503 222.573 312.875 222.459C312.141 222.326 311.729 221.894 311.632 221.233C311.434 219.881 312.014 218.796 313.125 217.912C313.458 217.647 313.805 217.396 314.152 217.144C314.479 216.907 314.806 216.67 315.121 216.422C316.295 215.5 316.365 214.498 315.256 213.507C314.232 212.592 312.357 212.587 311.479 213.509C311.108 213.898 310.862 214.393 310.627 214.867L310.613 214.895C310.22 215.684 309.639 216.265 308.616 215.934C307.55 215.589 307.103 214.869 307.399 213.806C307.984 211.705 310.144 210.371 313.661 210.385Z" fill="#0696D6"/>
<path d="M311.909 225.345C311.884 226.347 312.552 226.868 313.499 227.051C314.397 226.966 315.001 226.525 314.974 225.641C314.943 224.651 314.268 224.034 313.293 224.021C312.525 224.011 311.93 224.558 311.909 225.345Z" fill="#0696D6"/>
<path fill-rule="evenodd" clip-rule="evenodd" d="M303.201 229.214C300.858 226.727 298.935 223.977 298.352 220.52C297.519 215.583 298.821 211.288 302.736 208.103C303.008 207.882 303.279 207.659 303.55 207.437C306.582 204.949 309.632 202.446 313.677 201.618C322.615 199.788 331.724 205.945 333.221 214.915C333.672 217.611 333.07 220.129 331.862 222.529C331.777 222.697 331.68 222.86 331.582 223.022C331.326 223.445 331.071 223.868 331.057 224.395C328.891 225.572 328.115 227.018 328.506 229.237C328.826 231.053 328.613 232.638 327.148 233.99C326.535 234.557 326.039 235.253 325.544 235.949C325.32 236.262 325.097 236.576 324.863 236.878C323.612 238.092 322.26 237.635 320.906 237.178L320.776 237.134C319.633 235.407 317.861 233.997 316.047 233.951C311.147 233.83 306.962 232.227 303.201 229.214ZM312.574 206.363C312.397 206.363 312.22 206.359 312.043 206.355C311.659 206.346 311.276 206.337 310.896 206.37C301.613 207.165 296.717 216.87 301.638 224.793C304.074 228.715 307.655 231.059 312.139 231.933C312.848 232.071 313.571 232.149 314.294 232.227C316.361 232.45 318.42 232.672 320.133 234.302C320.218 234.383 320.307 234.47 320.4 234.561C321.176 235.322 322.205 236.332 323.069 235.817C323.726 235.425 323.423 234.42 323.144 233.494C323.056 233.199 322.969 232.912 322.917 232.656C322.59 231.045 322.879 230.018 324.255 228.873C327.343 226.309 328.595 222.815 327.922 218.794C326.722 211.616 320.168 206.326 312.574 206.363Z" fill="#0696D6"/>
<g filter="url(#filter5_d)">
<path fill-rule="evenodd" clip-rule="evenodd" d="M37.8393 174.851H83.4888C90.0474 174.851 95.3721 180.129 95.3721 186.629V231.387C95.3721 237.887 90.0474 243.165 83.4888 243.165H37.8393C31.2807 243.165 25.9559 237.887 25.9559 231.387V186.629C25.9559 180.129 31.2807 174.851 37.8393 174.851Z" fill="white"/>
<path d="M37.8393 175.351H83.4888C89.7754 175.351 94.8721 180.409 94.8721 186.629V231.387C94.8721 237.607 89.7754 242.665 83.4888 242.665H37.8393C31.5526 242.665 26.4559 237.607 26.4559 231.387V186.629C26.4559 180.409 31.5526 175.351 37.8393 175.351Z" stroke="#ECECEC"/>
</g>
<path opacity="0.3" d="M42.0492 203.261L71.43 192.678C71.9953 192.475 72.6203 192.754 72.8464 193.31L80.6153 212.453C81.2441 214.003 80.4643 215.765 78.8947 216.342L50.5885 226.741C48.8147 227.393 46.8367 226.582 46.0304 224.873L39.2994 210.606C38.9892 209.948 39.2956 209.165 39.9697 208.893L42.6065 207.828L41.3867 204.723C41.1563 204.136 41.4559 203.475 42.0492 203.261Z" fill="#0696D6"/>
<path d="M40.0732 208.228L40.0732 208.228C39.7875 207.622 40.0697 206.901 40.6904 206.65L40.6905 206.65L43.3273 205.586L43.4192 205.549L43.3829 205.456L42.1631 202.351C41.9533 201.817 42.2261 201.215 42.7664 201.02L72.1474 190.437C72.6621 190.252 73.2314 190.506 73.437 191.013L73.5297 190.975L73.437 191.013L81.2059 210.156C81.8135 211.653 81.0602 213.355 79.5437 213.912L51.2374 224.312C49.5121 224.946 47.5884 224.157 46.8041 222.495L40.0732 208.228Z" fill="#FFFCFF" stroke="#C9C8C8" stroke-width="0.2"/>
<path d="M43.29 205.493L40.6531 206.558C39.979 206.83 39.6724 207.614 39.9828 208.271L46.7138 222.538C47.0152 223.177 47.4806 223.69 48.0376 224.049C50.92 223.528 49.2383 219.423 49.2383 219.423L43.29 205.493Z" fill="#D1CDD3"/>
<path d="M56.6022 205.767L47.0565 209.615L50.9047 219.161L60.4504 215.313L56.6022 205.767Z" fill="#6FA7DB"/>
<path d="M59.0816 211.918L49.5359 215.766L50.9046 219.161L60.4503 215.313L59.0816 211.918Z" fill="#ABDE91"/>
<path d="M51.1776 213.872L58.0181 209.28L59.0808 211.916L51.6042 214.93L51.1776 213.872Z" fill="#2B5434"/>
<path d="M53.6735 214.096L48.6829 213.648L49.5359 215.764L53.6735 214.096Z" fill="#62A953"/>
<path d="M51.0805 212.325C51.7812 212.325 52.3493 211.757 52.3493 211.056C52.3493 210.356 51.7812 209.788 51.0805 209.788C50.3798 209.788 49.8118 210.356 49.8118 211.056C49.8118 211.757 50.3798 212.325 51.0805 212.325Z" fill="#FFC66D"/>
<path d="M64.6714 202.514L57.6061 205.362L57.9155 206.13L64.9808 203.282L64.6714 202.514Z" fill="#0696D6"/>
<path d="M65.3759 204.263L58.3107 207.111L58.6201 207.879L65.6853 205.031L65.3759 204.263Z" fill="#0696D6"/>
<path d="M66.0821 206.012L59.0169 208.86L59.3262 209.628L66.3915 206.78L66.0821 206.012Z" fill="#0696D6"/>
<path d="M66.7869 207.763L59.7216 210.611L60.031 211.378L67.0964 208.53L66.7869 207.763Z" fill="#0696D6"/>
<path d="M67.4896 209.505L60.4241 212.353L60.7335 213.12L67.799 210.272L67.4896 209.505Z" fill="#0696D6"/>
<path d="M68.1949 211.254L61.1296 214.103L61.439 214.87L68.5043 212.022L68.1949 211.254Z" fill="#0696D6"/>
<path d="M73.6307 198.902L66.5652 201.75L66.8746 202.518L73.9401 199.67L73.6307 198.902Z" fill="#0696D6"/>
<path d="M74.3359 200.652L67.2707 203.5L67.5801 204.268L74.6453 201.42L74.3359 200.652Z" fill="#0696D6"/>
<path d="M75.041 202.402L67.976 205.25L68.2854 206.018L75.3504 203.17L75.041 202.402Z" fill="#0696D6"/>
<path d="M75.7467 204.15L68.6815 206.998L68.9909 207.766L76.0561 204.918L75.7467 204.15Z" fill="#0696D6"/>
<path d="M76.4486 205.893L69.3834 208.741L69.6928 209.508L76.758 206.66L76.4486 205.893Z" fill="#0696D6"/>
<path d="M77.1539 207.643L70.0887 210.491L70.3981 211.258L77.4633 208.41L77.1539 207.643Z" fill="#0696D6"/>
<path d="M69.5115 214.522L62.4464 217.37L62.7558 218.138L69.8209 215.29L69.5115 214.522Z" fill="#0696D6"/>
<path d="M58.9627 218.774L51.8975 221.622L52.2069 222.39L59.2721 219.542L58.9627 218.774Z" fill="#0696D6"/>
<path d="M72.7128 196.625L46.1389 207.338L46.4483 208.105L73.0222 197.393L72.7128 196.625Z" fill="#0696D6"/>
<path d="M78.4714 210.909L71.4062 213.758L71.7156 214.525L78.7808 211.677L78.4714 210.909Z" fill="#0696D6"/>
<path d="M45.2809 215.402L47.192 214.632L46.8671 213.87L44.9717 214.635L45.2809 215.402Z" fill="#1B2746"/>
<path d="M45.983 217.144L47.9296 216.359L47.6045 215.598L45.6736 216.377L45.983 217.144Z" fill="#1B2746"/>
<path d="M44.5758 213.653L46.4512 212.897L46.1263 212.135L44.2664 212.885L44.5758 213.653Z" fill="#1B2746"/>
<path d="M43.1649 210.154L44.9692 209.426L44.6441 208.665L42.8557 209.386L43.1649 210.154Z" fill="#1B2746"/>
<path d="M48.3459 217.333L46.3791 218.126L46.6885 218.893L48.6708 218.094L48.3459 217.333Z" fill="#1B2746"/>
<path d="M43.8704 211.903L45.7102 211.161L45.3853 210.4L43.5609 211.136L43.8704 211.903Z" fill="#1B2746"/>
<defs>
<filter id="filter0_d" x="146.791" y="107.638" width="109.512" height="214.685" filterUnits="userSpaceOnUse" color-interpolation-filters="sRGB">
<feFlood flood-opacity="0" result="BackgroundImageFix"/>
<feColorMatrix in="SourceAlpha" type="matrix" values="0 0 0 0 0 0 0 0 0 0 0 0 0 0 0 0 0 0 127 0"/>
<feOffset dy="4"/>
<feGaussianBlur stdDeviation="2"/>
<feColorMatrix type="matrix" values="0 0 0 0 0 0 0 0 0 0 0 0 0 0 0 0 0 0 0.1 0"/>
<feBlend mode="normal" in2="BackgroundImageFix" result="effect1_dropShadow"/>
<feBlend mode="normal" in="SourceGraphic" in2="effect1_dropShadow" result="shape"/>
</filter>
<filter id="filter1_d" x="133.177" y="0" width="119.416" height="118.314" filterUnits="userSpaceOnUse" color-interpolation-filters="sRGB">
<feFlood flood-opacity="0" result="BackgroundImageFix"/>
<feColorMatrix in="SourceAlpha" type="matrix" values="0 0 0 0 0 0 0 0 0 0 0 0 0 0 0 0 0 0 127 0"/>
<feOffset/>
<feGaussianBlur stdDeviation="12.5"/>
<feColorMatrix type="matrix" values="0 0 0 0 0 0 0 0 0 0 0 0 0 0 0 0 0 0 0.1 0"/>
<feBlend mode="normal" in2="BackgroundImageFix" result="effect1_dropShadow"/>
<feBlend mode="normal" in="SourceGraphic" in2="effect1_dropShadow" result="shape"/>
</filter>
<filter id="filter2_d" x="17.4836" y="46.2775" width="119.416" height="118.314" filterUnits="userSpaceOnUse" color-interpolation-filters="sRGB">
<feFlood flood-opacity="0" result="BackgroundImageFix"/>
<feColorMatrix in="SourceAlpha" type="matrix" values="0 0 0 0 0 0 0 0 0 0 0 0 0 0 0 0 0 0 127 0"/>
<feOffset/>
<feGaussianBlur stdDeviation="12.5"/>
<feColorMatrix type="matrix" values="0 0 0 0 0 0 0 0 0 0 0 0 0 0 0 0 0 0 0.1 0"/>
<feBlend mode="normal" in2="BackgroundImageFix" result="effect1_dropShadow"/>
<feBlend mode="normal" in="SourceGraphic" in2="effect1_dropShadow" result="shape"/>
</filter>
<filter id="filter3_d" x="252.176" y="46.2775" width="119.416" height="118.314" filterUnits="userSpaceOnUse" color-interpolation-filters="sRGB">
<feFlood flood-opacity="0" result="BackgroundImageFix"/>
<feColorMatrix in="SourceAlpha" type="matrix" values="0 0 0 0 0 0 0 0 0 0 0 0 0 0 0 0 0 0 127 0"/>
<feOffset/>
<feGaussianBlur stdDeviation="12.5"/>
<feColorMatrix type="matrix" values="0 0 0 0 0 0 0 0 0 0 0 0 0 0 0 0 0 0 0.1 0"/>
<feBlend mode="normal" in2="BackgroundImageFix" result="effect1_dropShadow"/>
<feBlend mode="normal" in="SourceGraphic" in2="effect1_dropShadow" result="shape"/>
</filter>
<filter id="filter4_d" x="256.584" y="159.767" width="119.416" height="118.314" filterUnits="userSpaceOnUse" color-interpolation-filters="sRGB">
<feFlood flood-opacity="0" result="BackgroundImageFix"/>
<feColorMatrix in="SourceAlpha" type="matrix" values="0 0 0 0 0 0 0 0 0 0 0 0 0 0 0 0 0 0 127 0"/>
<feOffset/>
<feGaussianBlur stdDeviation="12.5"/>
<feColorMatrix type="matrix" values="0 0 0 0 0 0 0 0 0 0 0 0 0 0 0 0 0 0 0.1 0"/>
<feBlend mode="normal" in2="BackgroundImageFix" result="effect1_dropShadow"/>
<feBlend mode="normal" in="SourceGraphic" in2="effect1_dropShadow" result="shape"/>
</filter>
<filter id="filter5_d" x="0.955933" y="149.851" width="119.416" height="118.314" filterUnits="userSpaceOnUse" color-interpolation-filters="sRGB">
<feFlood flood-opacity="0" result="BackgroundImageFix"/>
<feColorMatrix in="SourceAlpha" type="matrix" values="0 0 0 0 0 0 0 0 0 0 0 0 0 0 0 0 0 0 127 0"/>
<feOffset/>
<feGaussianBlur stdDeviation="12.5"/>
<feColorMatrix type="matrix" values="0 0 0 0 0 0 0 0 0 0 0 0 0 0 0 0 0 0 0.1 0"/>
<feBlend mode="normal" in2="BackgroundImageFix" result="effect1_dropShadow"/>
<feBlend mode="normal" in="SourceGraphic" in2="effect1_dropShadow" result="shape"/>
</filter>
</defs>
</svg>
